<?xml version="1.0" standalone="no"?>
<!DOCTYPE svg PUBLIC "-//W3C//DTD SVG 20010904//EN"
 "http://www.w3.org/TR/2001/REC-SVG-20010904/DTD/svg10.dtd">
<svg version="1.0" xmlns="http://www.w3.org/2000/svg"
 width="347.000000pt" height="202.000000pt" viewBox="0 0 347.000000 202.000000"
 preserveAspectRatio="xMidYMid meet">

<g transform="translate(0.000000,202.000000) scale(0.100000,-0.100000)"
fill="#000000" stroke="none">
<path d="M488 1609 c-10 -5 -20 -25 -24 -45 -6 -32 -3 -39 35 -76 l41 -41 0
46 0 47 45 0 c45 0 45 0 45 -35 0 -34 1 -35 40 -35 l40 0 0 75 0 75 -102 0
c-57 0 -111 -5 -120 -11z"/>
<path d="M790 1580 c0 -36 3 -40 24 -40 l25 0 0 -142 c0 -79 1 -150 2 -158 1
-8 1 -41 1 -73 -2 -49 -5 -59 -23 -65 -18 -7 -19 -10 -6 -20 16 -14 67 0 67
17 0 5 9 12 20 16 17 5 19 15 18 73 0 37 0 133 1 215 1 140 2 147 21 147 16 0
20 7 20 33 l0 33 -85 3 -85 2 0 -41z"/>
<path d="M1040 1585 c0 -28 4 -35 19 -35 29 0 33 -12 32 -112 -1 -94 9 -119
36 -93 13 13 44 10 41 -3 -1 -4 10 -45 24 -92 14 -47 34 -113 44 -147 l18 -63
38 0 38 0 0 224 c0 161 -3 227 -12 232 -8 5 -9 2 -5 -9 7 -18 -8 -33 -18 -17
-9 15 4 50 20 50 7 0 15 7 19 15 3 8 15 15 26 15 16 0 20 6 20 35 l0 35 -60 0
-60 0 0 -49 c0 -39 4 -51 18 -54 16 -4 16 -5 0 -6 -25 -1 -22 -17 7 -49 24
-26 35 -59 16 -48 -21 13 -41 -7 -41 -40 0 -19 -4 -34 -9 -34 -10 0 -15 13
-26 68 -6 28 -9 31 -22 21 -12 -10 -16 -10 -23 1 -11 18 -2 33 17 26 9 -4 11
-2 7 6 -4 6 -8 21 -10 32 -1 12 -9 45 -16 74 l-13 52 -62 0 -63 0 0 -35z"/>
<path d="M1481 1603 c8 -10 35 -38 62 -64 42 -41 47 -43 47 -24 0 14 -8 25
-20 28 -11 3 -20 10 -20 16 0 17 27 13 34 -5 5 -12 15 -15 39 -11 20 3 40 0
52 -9 10 -8 13 -14 7 -14 -7 0 -12 -9 -12 -20 0 -16 7 -20 35 -20 l35 0 0 70
0 70 -63 0 c-37 0 -69 -5 -76 -12 -11 -10 -14 -10 -18 0 -3 7 -25 12 -60 12
-51 0 -54 -1 -42 -17z"/>
<path d="M1810 1575 c0 -31 3 -35 25 -35 l25 0 0 -154 0 -153 40 10 40 11 0
143 c0 136 1 143 20 143 16 0 20 7 20 35 l0 35 -85 0 -85 0 0 -35z"/>
<path d="M2060 1575 c0 -31 3 -35 25 -35 22 0 25 -4 25 -36 0 -27 5 -37 20
-41 25 -7 26 -23 3 -24 -11 0 -13 -3 -5 -6 17 -7 15 -23 -3 -23 -8 0 -15 -7
-15 -16 0 -14 2 -14 16 -3 14 12 16 11 12 -6 -2 -11 -10 -19 -16 -17 -7 1 -12
-5 -12 -13 0 -12 7 -14 28 -11 15 2 32 5 38 5 6 1 10 11 9 24 -1 12 5 27 14
34 11 8 12 12 4 13 -18 0 -16 40 2 40 17 0 11 62 -11 116 -14 33 -16 34 -74
34 l-60 0 0 -35z m100 -85 c-20 -13 -33 -13 -25 0 3 6 14 10 23 10 15 0 15 -2
2 -10z"/>
<path d="M2280 1565 c0 -33 4 -45 15 -45 8 0 15 -5 15 -11 0 -6 -7 -9 -15 -5
-12 4 -15 -3 -15 -33 0 -22 6 -42 13 -45 10 -5 10 -7 0 -12 -7 -3 -13 -23 -13
-45 0 -51 -16 -42 -31 17 -6 25 -14 42 -18 39 -3 -4 -6 -10 -6 -13 0 -4 -5
-14 -10 -22 -5 -8 -10 -22 -12 -30 -1 -8 -6 -16 -11 -18 -5 -1 1 -35 14 -75
13 -40 34 -107 47 -151 l23 -78 42 -3 43 -3 -1 236 c-1 130 -1 245 -1 255 1
10 9 17 21 17 16 0 20 7 20 35 l0 35 -60 0 -60 0 0 -45z"/>
<path d="M1508 1317 c-3 -211 -3 -212 -25 -215 -19 -3 -23 -10 -23 -38 l0 -34
85 0 85 0 0 35 c0 28 -4 35 -20 35 -18 0 -20 7 -21 58 0 31 -2 78 -3 105 -1
43 0 47 21 47 13 0 23 5 23 11 0 20 -21 50 -31 44 -5 -4 -9 -3 -8 2 1 4 1 27
0 51 -1 30 -5 42 -16 42 -8 0 -15 5 -15 11 0 7 -11 22 -25 35 l-25 23 -2 -212z"/>
<path d="M460 1459 c0 -58 11 -79 51 -100 l39 -19 0 33 c0 33 -22 65 -73 106
-15 12 -17 10 -17 -20z"/>
<path d="M1260 1446 c0 -9 5 -16 10 -16 6 0 10 4 10 9 0 6 -4 13 -10 16 -5 3
-10 -1 -10 -9z"/>
<path d="M570 1375 c0 -30 5 -39 35 -56 l35 -21 0 -88 c0 -64 -4 -91 -13 -97
-23 -13 7 -73 36 -73 26 0 47 17 47 37 0 10 -9 12 -35 7 -37 -7 -48 8 -20 24
12 6 14 14 6 34 -11 29 1 48 31 48 32 0 37 120 7 157 -14 16 -102 63 -119 63
-5 0 -10 -16 -10 -35z"/>
<path d="M1630 1370 c0 -5 5 -10 10 -10 6 0 10 -9 10 -19 0 -11 5 -23 10 -26
6 -4 10 8 10 29 0 29 -4 36 -20 36 -11 0 -20 -4 -20 -10z"/>
<path d="M1088 1215 l-3 -100 -28 -3 c-25 -3 -28 -7 -25 -35 3 -32 3 -32 66
-35 l62 -3 0 134 0 135 -35 4 -34 4 -3 -101z"/>
<path d="M2110 1210 l0 -110 -30 0 c-28 0 -30 -3 -30 -35 l0 -35 65 0 65 0 0
135 c0 83 -4 135 -10 135 -18 0 -25 2 -42 11 -17 9 -18 1 -18 -101z"/>
<path d="M1873 1223 c-9 -3 -13 -26 -13 -64 0 -52 -2 -59 -20 -59 -11 0 -20
-4 -20 -9 0 -5 9 -13 20 -16 11 -3 20 -11 20 -16 0 -5 -9 -9 -20 -9 -11 0 -20
-4 -20 -10 0 -11 118 -14 144 -4 10 4 16 18 16 35 0 24 -4 28 -22 26 -22 -2
-22 1 -19 66 l3 67 -29 -1 c-15 0 -34 -3 -40 -6z"/>
<path d="M462 1134 c4 -88 9 -94 91 -94 49 0 57 3 57 18 0 26 -33 54 -54 46
-9 -3 -16 -1 -16 6 0 6 -6 8 -12 4 -10 -6 -10 -4 0 7 17 19 15 39 -5 39 -17 1
-17 1 0 14 29 22 20 36 -24 36 l-41 0 4 -76z"/>
<path d="M685 1120 c4 -6 11 -8 16 -5 14 9 11 15 -7 15 -8 0 -12 -5 -9 -10z"/>
<path d="M889 1083 c-6 -7 -29 -18 -50 -25 -58 -17 -47 -28 27 -28 69 0 94 12
94 48 0 14 -7 19 -30 19 -17 0 -35 -6 -41 -14z"/>
</g>
</svg>
